<?xml version="1.0" encoding="UTF-8"?>
<svg width="45px" height="40px" viewBox="0 0 45 40" version="1.1" xmlns="http://www.w3.org/2000/svg" xmlns:xlink="http://www.w3.org/1999/xlink">
    <!-- Generator: Sketch 52.4 (67378) - http://www.bohemiancoding.com/sketch -->
    <title>Group 2</title>
    <desc>Created with Sketch.</desc>
    <g id="Page-1" stroke="none" stroke-width="1" fill="none" fill-rule="evenodd">
        <g id="Tommy" transform="translate(-1005.000000, -488.000000)">
            <g id="Group-2" transform="translate(1005.000000, 488.000000)">
                <path d="M10.0264,3.3652 C10.4254,3.3652 10.8164,3.3952 11.1854,3.1362 L11.1954,3.1362 L11.2054,3.1362 C11.2644,3.4592 11.3314,3.4712 11.4034,3.4842 C11.6614,3.5282 11.8724,3.6842 11.9634,3.9072 L15.5764,12.6442 L15.5714,12.6442 C15.5884,12.7232 15.5764,12.7602 15.5334,12.7852 L11.5684,15.1392 C10.5814,15.7202 10.2114,16.8372 10.6434,17.7832 C13.3434,23.6842 18.9044,28.3692 25.7464,30.5842 L25.7514,30.5882 C26.5674,30.8482 27.4814,30.5782 27.9534,29.9522 L30.8484,26.1202 C30.8804,26.0782 30.9164,26.0662 30.9704,26.0832 C33.2314,26.7892 38.8014,28.5282 41.0334,29.2252 C41.2864,29.3052 41.4634,29.4862 41.5134,29.7102 L40.8214,29.7182 L40.8214,29.7262 C41.5314,29.7782 41.5434,29.8302 41.6614,29.8822 L41.6614,29.8902 L41.5564,29.8982 C41.6194,30.2202 41.6504,30.5602 41.6504,30.9082 C41.6504,34.2852 38.5254,37.0072 34.6484,37.0072 C17.1714,37.0072 3.0244,24.6852 3.0244,9.4632 C3.0244,6.0872 6.1494,3.3652 10.0264,3.3652 M10.4114,0.7842 C5.1814,0.7842 0.9104,4.5042 0.9104,9.0592 C0.9104,25.2522 15.7494,38.3852 34.2034,38.8812 L34.2224,38.9722 L34.7134,38.9722 C39.8254,38.9722 44.0004,35.3362 44.0004,30.8842 C44.0004,30.4262 43.9554,29.9752 43.8704,29.5392 C43.8544,29.4562 43.8384,29.3762 43.8184,29.2962 C43.6054,28.3622 42.8434,27.5932 41.8194,27.2712 L41.8484,27.2712 C41.8484,27.2712 34.0454,24.8092 31.7864,24.1042 C30.6974,23.7632 29.4644,24.1242 28.8304,24.9662 L26.2224,28.4162 C20.2104,26.3562 15.2744,22.2192 12.8874,17.0032 C12.8594,16.9402 12.8774,16.9062 13.1114,16.8802 L13.1114,16.8762 L16.8914,14.5232 C17.8354,13.9622 18.2294,12.9052 17.8484,11.9122 L17.8434,11.9122 L14.2364,3.1972 C13.8614,2.2892 12.2714,1.4222 12.2714,1.4222 L12.2714,0.9422 L12.2664,0.9422 C12.1784,0.9272 12.0814,0.9152 11.9764,0.9012 C11.4654,0.8242 10.9414,0.7842 10.4114,0.7842" id="Fill-20" fill="#000000"></path>
                <path d="M10.0264,3.3652 C10.4254,3.3652 10.8164,3.3952 11.1854,3.1362 L11.1954,3.1362 L11.2054,3.1362 C11.2644,3.4592 11.3314,3.4712 11.4034,3.4842 C11.6614,3.5282 11.8724,3.6842 11.9634,3.9072 L15.5764,12.6442 L15.5714,12.6442 C15.5884,12.7232 15.5764,12.7602 15.5334,12.7852 L11.5684,15.1392 C10.5814,15.7202 10.2114,16.8372 10.6434,17.7832 C13.3434,23.6842 18.9044,28.3692 25.7464,30.5842 L25.7514,30.5882 C26.5674,30.8482 27.4814,30.5782 27.9534,29.9522 L30.8484,26.1202 C30.8804,26.0782 30.9164,26.0662 30.9704,26.0832 C33.2314,26.7892 38.8014,28.5282 41.0334,29.2252 C41.2864,29.3052 41.4634,29.4862 41.5134,29.7102 L40.8214,29.7182 L40.8214,29.7262 C41.5314,29.7782 41.5434,29.8302 41.6614,29.8822 L41.6614,29.8902 L41.5564,29.8982 C41.6194,30.2202 41.6504,30.5602 41.6504,30.9082 C41.6504,34.2852 38.5254,37.0072 34.6484,37.0072 C17.1714,37.0072 3.0244,24.6852 3.0244,9.4632 C3.0244,6.0872 6.1494,3.3652 10.0264,3.3652 Z M10.4114,0.7842 C5.1814,0.7842 0.9104,4.5042 0.9104,9.0592 C0.9104,25.2522 15.7494,38.3852 34.2034,38.8812 L34.2224,38.9722 L34.7134,38.9722 C39.8254,38.9722 44.0004,35.3362 44.0004,30.8842 C44.0004,30.4262 43.9554,29.9752 43.8704,29.5392 C43.8544,29.4562 43.8384,29.3762 43.8184,29.2962 C43.6054,28.3622 42.8434,27.5932 41.8194,27.2712 L41.8484,27.2712 C41.8484,27.2712 34.0454,24.8092 31.7864,24.1042 C30.6974,23.7632 29.4644,24.1242 28.8304,24.9662 L26.2224,28.4162 C20.2104,26.3562 15.2744,22.2192 12.8874,17.0032 C12.8594,16.9402 12.8774,16.9062 13.1114,16.8802 L13.1114,16.8762 L16.8914,14.5232 C17.8354,13.9622 18.2294,12.9052 17.8484,11.9122 L17.8434,11.9122 L14.2364,3.1972 C13.8614,2.2892 12.2714,1.4222 12.2714,1.4222 L12.2714,0.9422 L12.2664,0.9422 C12.1784,0.9272 12.0814,0.9152 11.9764,0.9012 C11.4654,0.8242 10.9414,0.7842 10.4114,0.7842 Z" id="Stroke-22" stroke="#FFFFFF" stroke-width="0.25"></path>
            </g>
        </g>
    </g>
</svg>