<?xml version="1.0" encoding="UTF-8"?>
<svg width="281px" height="79px" viewBox="0 0 281 79" version="1.1" xmlns="http://www.w3.org/2000/svg" xmlns:xlink="http://www.w3.org/1999/xlink">
    <!-- Generator: Sketch 52.4 (67378) - http://www.bohemiancoding.com/sketch -->
    <title>Tommy</title>
    <desc>Created with Sketch.</desc>
    <g id="Page-1" stroke="none" stroke-width="1" fill="none" fill-rule="evenodd">
        <g id="Tommy" transform="translate(-832.000000, -362.000000)">
            <g transform="translate(832.000000, 363.000000)">
                <g>
                    <path d="M17.3836,10.6553 L17.3836,52.5593 L27.6876,52.5593 L27.6876,10.6553 L43.0956,10.6553 L43.0956,2.1513 L1.9756,2.1513 L1.9756,10.6553 L17.3836,10.6553 Z M0.9756,11.6553 L0.9756,1.1513 L44.0956,1.1513 L44.0956,11.6553 L28.6876,11.6553 L28.6876,53.5593 L16.3836,53.5593 L16.3836,11.6553 L0.9756,11.6553 Z" id="Stroke-2" fill="#000000" fill-rule="nonzero"></path>
                    <g id="Group-11" transform="translate(47.000000, 0.000000)" stroke="#000000">
                        <path d="M12.3271,33.8711 C12.8311,35.9121 13.6341,37.7481 14.7391,39.3791 C15.8431,41.0111 17.2831,42.3201 19.0591,43.3031 C20.8341,44.2881 22.9941,44.7791 25.5391,44.7791 C28.0831,44.7791 30.2431,44.2881 32.0191,43.3031 C33.7951,42.3201 35.2341,41.0111 36.3391,39.3791 C37.4431,37.7481 38.2471,35.9121 38.7511,33.8711 C39.2551,31.8311 39.5071,29.7311 39.5071,27.5711 C39.5071,25.3151 39.2551,23.1321 38.7511,21.0191 C38.2471,18.9071 37.4431,17.0231 36.3391,15.3671 C35.2341,13.7111 33.7951,12.3921 32.0191,11.4071 C30.2431,10.4241 28.0831,9.9311 25.5391,9.9311 C22.9941,9.9311 20.8341,10.4241 19.0591,11.4071 C17.2831,12.3921 15.8431,13.7111 14.7391,15.3671 C13.6341,17.0231 12.8311,18.9071 12.3271,21.0191 C11.8231,23.1321 11.5711,25.3151 11.5711,27.5711 C11.5711,29.7311 11.8231,31.8311 12.3271,33.8711 Z M1.9951,16.8791 C3.1471,13.5921 4.8031,10.7231 6.9631,8.2751 C9.1231,5.8271 11.7751,3.9081 14.9191,2.5151 C18.0621,1.1231 21.6031,0.4271 25.5391,0.4271 C29.5231,0.4271 33.0741,1.1231 36.1951,2.5151 C39.3141,3.9081 41.9551,5.8271 44.1151,8.2751 C46.2751,10.7231 47.9311,13.5921 49.0831,16.8791 C50.2351,20.1671 50.8111,23.7311 50.8111,27.5711 C50.8111,31.3151 50.2351,34.8071 49.0831,38.0471 C47.9311,41.2871 46.2751,44.1071 44.1151,46.5071 C41.9551,48.9081 39.3141,50.7911 36.1951,52.1591 C33.0741,53.5271 29.5231,54.2111 25.5391,54.2111 C21.6031,54.2111 18.0621,53.5271 14.9191,52.1591 C11.7751,50.7911 9.1231,48.9081 6.9631,46.5071 C4.8031,44.1071 3.1471,41.2871 1.9951,38.0471 C0.8431,34.8071 0.2671,31.3151 0.2671,27.5711 C0.2671,23.7311 0.8431,20.1671 1.9951,16.8791 Z" id="Stroke-3"></path>
                        <polygon id="Stroke-5" points="74.4268 1.6509 86.4508 37.0029 86.5948 37.0029 97.9708 1.6509 113.8828 1.6509 113.8828 53.0589 103.2988 53.0589 103.2988 16.6269 103.1558 16.6269 90.5548 53.0589 81.8428 53.0589 69.2428 16.9869 69.0988 16.9869 69.0988 53.0589 58.5148 53.0589 58.5148 1.6509"></polygon>
                        <polygon id="Stroke-7" points="139.7305 1.6509 151.7545 37.0029 151.8985 37.0029 163.2745 1.6509 179.1865 1.6509 179.1865 53.0589 168.6025 53.0589 168.6025 16.6269 168.4595 16.6269 155.8585 53.0589 147.1465 53.0589 134.5465 16.9869 134.4025 16.9869 134.4025 53.0589 123.8185 53.0589 123.8185 1.6509"></polygon>
                        <polygon id="Stroke-9" points="183.5781 1.6509 196.2501 1.6509 208.2741 21.9549 220.2261 1.6509 232.8261 1.6509 213.7461 33.3309 213.7461 53.0589 202.4421 53.0589 202.4421 33.0429"></polygon>
                    </g>
                </g>
                <path d="M11.304,60.7700758 L20.34,60.7700758 L20.34,63.1460758 L14.13,63.1460758 L14.13,66.1160758 L19.512,66.1160758 L19.512,68.3120758 L14.13,68.3120758 L14.13,73.6220758 L11.304,73.6220758 L11.304,60.7700758 Z M30.438,73.6220758 L28.008,73.6220758 L28.008,72.3260758 L27.954,72.3260758 C27.6299984,72.8660785 27.2100026,73.2560746 26.694,73.4960758 C26.1779974,73.736077 25.6500027,73.8560758 25.11,73.8560758 C24.4259966,73.8560758 23.8650022,73.7660767 23.427,73.5860758 C22.9889978,73.4060749 22.6440013,73.1510775 22.392,72.8210758 C22.1399987,72.4910742 21.9630005,72.0890782 21.861,71.6150758 C21.7589995,71.1410735 21.708,70.6160787 21.708,70.0400758 L21.708,64.3160758 L24.264,64.3160758 L24.264,69.5720758 C24.264,70.3400797 24.3839988,70.9130739 24.624,71.2910758 C24.8640012,71.6690777 25.2899969,71.8580758 25.902,71.8580758 C26.5980035,71.8580758 27.1019984,71.6510779 27.414,71.2370758 C27.7260016,70.8230738 27.882,70.1420806 27.882,69.1940758 L27.882,64.3160758 L30.438,64.3160758 L30.438,73.6220758 Z M32.382,64.3160758 L34.812,64.3160758 L34.812,66.0440758 L34.848,66.0440758 C34.9680006,65.7560744 35.129999,65.4890771 35.334,65.2430758 C35.538001,64.9970746 35.7719987,64.7870767 36.036,64.6130758 C36.3000013,64.439075 36.5819985,64.3040763 36.882,64.2080758 C37.1820015,64.1120754 37.4939984,64.0640758 37.818,64.0640758 C37.9860008,64.0640758 38.171999,64.0940755 38.376,64.1540758 L38.376,66.5300758 C38.2559994,66.5060757 38.1120008,66.4850759 37.944,66.4670758 C37.7759992,66.4490757 37.6140008,66.4400758 37.458,66.4400758 C36.9899977,66.4400758 36.5940016,66.5180751 36.27,66.6740758 C35.9459984,66.8300766 35.685001,67.0430745 35.487,67.3130758 C35.288999,67.5830772 35.1480004,67.898074 35.064,68.2580758 C34.9799996,68.6180776 34.938,69.0080737 34.938,69.4280758 L34.938,73.6220758 L32.382,73.6220758 L32.382,64.3160758 Z M40.032,64.3160758 L42.462,64.3160758 L42.462,65.6120758 L42.516,65.6120758 C42.8400016,65.0720731 43.2599974,64.6790771 43.776,64.4330758 C44.2920026,64.1870746 44.8199973,64.0640758 45.36,64.0640758 C46.0440034,64.0640758 46.6049978,64.1570749 47.043,64.3430758 C47.4810022,64.5290768 47.8259987,64.7870742 48.078,65.1170758 C48.3300013,65.4470775 48.5069995,65.8490735 48.609,66.3230758 C48.7110005,66.7970782 48.762,67.322073 48.762,67.8980758 L48.762,73.6220758 L46.206,73.6220758 L46.206,68.3660758 C46.206,67.598072 46.0860012,67.0250777 45.846,66.6470758 C45.6059988,66.2690739 45.1800031,66.0800758 44.568,66.0800758 C43.8719965,66.0800758 43.3680016,66.2870738 43.056,66.7010758 C42.7439984,67.1150779 42.588,67.7960711 42.588,68.7440758 L42.588,73.6220758 L40.032,73.6220758 L40.032,64.3160758 Z M53.334,62.8760758 L50.778,62.8760758 L50.778,60.7700758 L53.334,60.7700758 L53.334,62.8760758 Z M50.778,64.3160758 L53.334,64.3160758 L53.334,73.6220758 L50.778,73.6220758 L50.778,64.3160758 Z M58.59,64.3160758 L60.462,64.3160758 L60.462,66.0260758 L58.59,66.0260758 L58.59,70.6340758 C58.59,71.066078 58.6619993,71.3540751 58.806,71.4980758 C58.9500007,71.6420766 59.2379978,71.7140758 59.67,71.7140758 C59.8140007,71.7140758 59.9519993,71.7080759 60.084,71.6960758 C60.2160007,71.6840758 60.3419994,71.666076 60.462,71.6420758 L60.462,73.6220758 C60.2459989,73.658076 60.0060013,73.6820758 59.742,73.6940758 C59.4779987,73.7060759 59.2200013,73.7120758 58.968,73.7120758 C58.571998,73.7120758 58.1970018,73.6850761 57.843,73.6310758 C57.4889982,73.5770756 57.1770014,73.4720766 56.907,73.3160758 C56.6369987,73.1600751 56.4240008,72.9380773 56.268,72.6500758 C56.1119992,72.3620744 56.034,71.9840782 56.034,71.5160758 L56.034,66.0260758 L54.486,66.0260758 L54.486,64.3160758 L56.034,64.3160758 L56.034,61.5260758 L58.59,61.5260758 L58.59,64.3160758 Z M70.416,73.6220758 L67.986,73.6220758 L67.986,72.3260758 L67.932,72.3260758 C67.6079984,72.8660785 67.1880026,73.2560746 66.672,73.4960758 C66.1559974,73.736077 65.6280027,73.8560758 65.088,73.8560758 C64.4039966,73.8560758 63.8430022,73.7660767 63.405,73.5860758 C62.9669978,73.4060749 62.6220013,73.1510775 62.37,72.8210758 C62.1179987,72.4910742 61.9410005,72.0890782 61.839,71.6150758 C61.7369995,71.1410735 61.686,70.6160787 61.686,70.0400758 L61.686,64.3160758 L64.242,64.3160758 L64.242,69.5720758 C64.242,70.3400797 64.3619988,70.9130739 64.602,71.2910758 C64.8420012,71.6690777 65.2679969,71.8580758 65.88,71.8580758 C66.5760035,71.8580758 67.0799984,71.6510779 67.392,71.2370758 C67.7040016,70.8230738 67.86,70.1420806 67.86,69.1940758 L67.86,64.3160758 L70.416,64.3160758 L70.416,73.6220758 Z M72.36,64.3160758 L74.79,64.3160758 L74.79,66.0440758 L74.826,66.0440758 C74.9460006,65.7560744 75.107999,65.4890771 75.312,65.2430758 C75.516001,64.9970746 75.7499987,64.7870767 76.014,64.6130758 C76.2780013,64.439075 76.5599985,64.3040763 76.86,64.2080758 C77.1600015,64.1120754 77.4719984,64.0640758 77.796,64.0640758 C77.9640008,64.0640758 78.149999,64.0940755 78.354,64.1540758 L78.354,66.5300758 C78.2339994,66.5060757 78.0900008,66.4850759 77.922,66.4670758 C77.7539992,66.4490757 77.5920008,66.4400758 77.436,66.4400758 C76.9679977,66.4400758 76.5720016,66.5180751 76.248,66.6740758 C75.9239984,66.8300766 75.663001,67.0430745 75.465,67.3130758 C75.266999,67.5830772 75.1260004,67.898074 75.042,68.2580758 C74.9579996,68.6180776 74.916,69.0080737 74.916,69.4280758 L74.916,73.6220758 L72.36,73.6220758 L72.36,64.3160758 Z M84.978,67.9700758 C84.8579994,67.3220726 84.6450015,66.8300775 84.339,66.4940758 C84.0329985,66.1580742 83.5680031,65.9900758 82.944,65.9900758 C82.535998,65.9900758 82.1970014,66.0590751 81.927,66.1970758 C81.6569987,66.3350765 81.4410008,66.5060748 81.279,66.7100758 C81.1169992,66.9140769 81.0030003,67.1300747 80.937,67.3580758 C80.8709997,67.586077 80.8320001,67.7900749 80.82,67.9700758 L84.978,67.9700758 Z M80.82,69.5900758 C80.8560002,70.41808 81.0659981,71.018074 81.45,71.3900758 C81.8340019,71.7620777 82.3859964,71.9480758 83.106,71.9480758 C83.6220026,71.9480758 84.0659981,71.8190771 84.438,71.5610758 C84.8100019,71.3030745 85.0379996,71.0300773 85.122,70.7420758 L87.372,70.7420758 C87.0119982,71.8580814 86.4600037,72.6560734 85.716,73.1360758 C84.9719963,73.6160782 84.0720053,73.8560758 83.016,73.8560758 C82.2839963,73.8560758 81.6240029,73.739077 81.036,73.5050758 C80.4479971,73.2710747 79.950002,72.938078 79.542,72.5060758 C79.133998,72.0740737 78.8190011,71.5580788 78.597,70.9580758 C78.3749989,70.3580728 78.264,69.6980794 78.264,68.9780758 C78.264,68.2820724 78.3779989,67.6340788 78.606,67.0340758 C78.8340011,66.4340728 79.1579979,65.915078 79.578,65.4770758 C79.9980021,65.0390736 80.4989971,64.6940771 81.081,64.4420758 C81.6630029,64.1900746 82.3079965,64.0640758 83.016,64.0640758 C83.808004,64.0640758 84.4979971,64.2170743 85.086,64.5230758 C85.6740029,64.8290774 86.1569981,65.2400733 86.535,65.7560758 C86.9130019,66.2720784 87.1859992,66.8600725 87.354,67.5200758 C87.5220008,68.1800791 87.5820002,68.8700722 87.534,69.5900758 L80.82,69.5900758 Z M93.942,67.1780758 C93.9780002,66.5780728 94.1279987,66.0800778 94.392,65.6840758 C94.6560013,65.2880739 94.991998,64.970077 95.4,64.7300758 C95.808002,64.4900746 96.2669975,64.3190763 96.777,64.2170758 C97.2870026,64.1150753 97.7999974,64.0640758 98.316,64.0640758 C98.7840023,64.0640758 99.2579976,64.0970755 99.738,64.1630758 C100.218002,64.2290762 100.655998,64.3580749 101.052,64.5500758 C101.448002,64.7420768 101.771999,65.0090741 102.024,65.3510758 C102.276001,65.6930775 102.402,66.146073 102.402,66.7100758 L102.402,71.5520758 C102.402,71.9720779 102.426,72.3740739 102.474,72.7580758 C102.522,73.1420778 102.605999,73.4300749 102.726,73.6220758 L100.134,73.6220758 C100.086,73.4780751 100.047,73.3310766 100.017,73.1810758 C99.9869999,73.0310751 99.9660001,72.8780766 99.954,72.7220758 C99.545998,73.1420779 99.0660028,73.436075 98.514,73.6040758 C97.9619972,73.7720767 97.3980029,73.8560758 96.822,73.8560758 C96.3779978,73.8560758 95.9640019,73.8020764 95.58,73.6940758 C95.1959981,73.5860753 94.8600014,73.418077 94.572,73.1900758 C94.2839986,72.9620747 94.0590008,72.6740776 93.897,72.3260758 C93.7349992,71.9780741 93.654,71.5640782 93.654,71.0840758 C93.654,70.5560732 93.7469991,70.1210775 93.933,69.7790758 C94.1190009,69.4370741 94.3589985,69.1640769 94.653,68.9600758 C94.9470015,68.7560748 95.2829981,68.6030763 95.661,68.5010758 C96.0390019,68.3990753 96.4199981,68.3180761 96.804,68.2580758 C97.1880019,68.1980755 97.5659981,68.150076 97.938,68.1140758 C98.3100019,68.0780757 98.6399986,68.0240762 98.928,67.9520758 C99.2160014,67.8800755 99.4439992,67.7750765 99.612,67.6370758 C99.7800008,67.4990751 99.8580001,67.2980772 99.846,67.0340758 C99.846,66.7580745 99.8010005,66.5390766 99.711,66.3770758 C99.6209996,66.215075 99.5010008,66.0890763 99.351,65.9990758 C99.2009993,65.9090754 99.027001,65.849076 98.829,65.8190758 C98.630999,65.7890757 98.4180011,65.7740758 98.19,65.7740758 C97.6859975,65.7740758 97.2900014,65.8820748 97.002,66.0980758 C96.7139986,66.3140769 96.5460002,66.6740733 96.498,67.1780758 L93.942,67.1780758 Z M99.846,69.0680758 C99.7379995,69.1640763 99.6030008,69.2390756 99.441,69.2930758 C99.2789992,69.3470761 99.1050009,69.3920757 98.919,69.4280758 C98.7329991,69.464076 98.538001,69.4940757 98.334,69.5180758 C98.129999,69.542076 97.926001,69.5720757 97.722,69.6080758 C97.529999,69.644076 97.3410009,69.6920755 97.155,69.7520758 C96.9689991,69.8120761 96.8070007,69.8930753 96.669,69.9950758 C96.5309993,70.0970763 96.4200004,70.2260751 96.336,70.3820758 C96.2519996,70.5380766 96.21,70.7360746 96.21,70.9760758 C96.21,71.204077 96.2519996,71.3960751 96.336,71.5520758 C96.4200004,71.7080766 96.5339993,71.8310754 96.678,71.9210758 C96.8220007,72.0110763 96.989999,72.0740757 97.182,72.1100758 C97.374001,72.146076 97.571999,72.1640758 97.776,72.1640758 C98.2800025,72.1640758 98.6699986,72.0800767 98.946,71.9120758 C99.2220014,71.744075 99.4259993,71.543077 99.558,71.3090758 C99.6900007,71.0750747 99.7709999,70.838077 99.801,70.5980758 C99.8310002,70.3580746 99.846,70.1660766 99.846,70.0220758 L99.846,69.0680758 Z M104.382,64.3160758 L106.812,64.3160758 L106.812,65.6120758 L106.866,65.6120758 C107.190002,65.0720731 107.609997,64.6790771 108.126,64.4330758 C108.642003,64.1870746 109.169997,64.0640758 109.71,64.0640758 C110.394003,64.0640758 110.954998,64.1570749 111.393,64.3430758 C111.831002,64.5290768 112.175999,64.7870742 112.428,65.1170758 C112.680001,65.4470775 112.856999,65.8490735 112.959,66.3230758 C113.061001,66.7970782 113.112,67.322073 113.112,67.8980758 L113.112,73.6220758 L110.556,73.6220758 L110.556,68.3660758 C110.556,67.598072 110.436001,67.0250777 110.196,66.6470758 C109.955999,66.2690739 109.530003,66.0800758 108.918,66.0800758 C108.221997,66.0800758 107.718002,66.2870738 107.406,66.7010758 C107.093998,67.1150779 106.938,67.7960711 106.938,68.7440758 L106.938,73.6220758 L104.382,73.6220758 L104.382,64.3160758 Z M121.662,68.9420758 C121.662,68.5580739 121.626,68.1890776 121.554,67.8350758 C121.482,67.4810741 121.359001,67.1690772 121.185,66.8990758 C121.010999,66.6290745 120.786001,66.4100767 120.51,66.2420758 C120.233999,66.074075 119.886002,65.9900758 119.466,65.9900758 C119.045998,65.9900758 118.692001,66.074075 118.404,66.2420758 C118.115999,66.4100767 117.885001,66.6320745 117.711,66.9080758 C117.536999,67.1840772 117.411,67.4990741 117.333,67.8530758 C117.255,68.2070776 117.216,68.5760739 117.216,68.9600758 C117.216,69.3200776 117.258,69.680074 117.342,70.0400758 C117.426,70.4000776 117.560999,70.7210744 117.747,71.0030758 C117.933001,71.2850772 118.166999,71.513075 118.449,71.6870758 C118.731001,71.8610767 119.069998,71.9480758 119.466,71.9480758 C119.886002,71.9480758 120.236999,71.8640767 120.519,71.6960758 C120.801001,71.528075 121.025999,71.3030772 121.194,71.0210758 C121.362001,70.7390744 121.482,70.4180776 121.554,70.0580758 C121.626,69.698074 121.662,69.3260778 121.662,68.9420758 Z M121.698,72.4340758 L121.662,72.4340758 C121.361999,72.9380784 120.969002,73.3010747 120.483,73.5230758 C119.996998,73.7450769 119.448003,73.8560758 118.836,73.8560758 C118.139997,73.8560758 117.528003,73.7210772 117,73.4510758 C116.471997,73.1810745 116.037002,72.8150781 115.695,72.3530758 C115.352998,71.8910735 115.095001,71.3600788 114.921,70.7600758 C114.746999,70.1600728 114.66,69.5360791 114.66,68.8880758 C114.66,68.2640727 114.746999,67.6610787 114.921,67.0790758 C115.095001,66.4970729 115.352998,65.9840781 115.695,65.5400758 C116.037002,65.0960736 116.465997,64.7390772 116.982,64.4690758 C117.498003,64.1990745 118.097997,64.0640758 118.782,64.0640758 C119.334003,64.0640758 119.858998,64.1810747 120.357,64.4150758 C120.855002,64.649077 121.247999,64.9940736 121.536,65.4500758 L121.572,65.4500758 L121.572,60.7700758 L124.128,60.7700758 L124.128,73.6220758 L121.698,73.6220758 L121.698,72.4340758 Z M131.328,60.7700758 L134.154,60.7700758 L134.154,73.6220758 L131.328,73.6220758 L131.328,60.7700758 Z M136.368,64.3160758 L138.798,64.3160758 L138.798,65.6120758 L138.852,65.6120758 C139.176002,65.0720731 139.595997,64.6790771 140.112,64.4330758 C140.628003,64.1870746 141.155997,64.0640758 141.696,64.0640758 C142.380003,64.0640758 142.940998,64.1570749 143.379,64.3430758 C143.817002,64.5290768 144.161999,64.7870742 144.414,65.1170758 C144.666001,65.4470775 144.842999,65.8490735 144.945,66.3230758 C145.047001,66.7970782 145.098,67.322073 145.098,67.8980758 L145.098,73.6220758 L142.542,73.6220758 L142.542,68.3660758 C142.542,67.598072 142.422001,67.0250777 142.182,66.6470758 C141.941999,66.2690739 141.516003,66.0800758 140.904,66.0800758 C140.207997,66.0800758 139.704002,66.2870738 139.392,66.7010758 C139.079998,67.1150779 138.924,67.7960711 138.924,68.7440758 L138.924,73.6220758 L136.368,73.6220758 L136.368,64.3160758 Z M153.648,68.9420758 C153.648,68.5580739 153.612,68.1890776 153.54,67.8350758 C153.468,67.4810741 153.345001,67.1690772 153.171,66.8990758 C152.996999,66.6290745 152.772001,66.4100767 152.496,66.2420758 C152.219999,66.074075 151.872002,65.9900758 151.452,65.9900758 C151.031998,65.9900758 150.678001,66.074075 150.39,66.2420758 C150.101999,66.4100767 149.871001,66.6320745 149.697,66.9080758 C149.522999,67.1840772 149.397,67.4990741 149.319,67.8530758 C149.241,68.2070776 149.202,68.5760739 149.202,68.9600758 C149.202,69.3200776 149.244,69.680074 149.328,70.0400758 C149.412,70.4000776 149.546999,70.7210744 149.733,71.0030758 C149.919001,71.2850772 150.152999,71.513075 150.435,71.6870758 C150.717001,71.8610767 151.055998,71.9480758 151.452,71.9480758 C151.872002,71.9480758 152.222999,71.8640767 152.505,71.6960758 C152.787001,71.528075 153.011999,71.3030772 153.18,71.0210758 C153.348001,70.7390744 153.468,70.4180776 153.54,70.0580758 C153.612,69.698074 153.648,69.3260778 153.648,68.9420758 Z M153.684,72.4340758 L153.648,72.4340758 C153.347999,72.9380784 152.955002,73.3010747 152.469,73.5230758 C151.982998,73.7450769 151.434003,73.8560758 150.822,73.8560758 C150.125997,73.8560758 149.514003,73.7210772 148.986,73.4510758 C148.457997,73.1810745 148.023002,72.8150781 147.681,72.3530758 C147.338998,71.8910735 147.081001,71.3600788 146.907,70.7600758 C146.732999,70.1600728 146.646,69.5360791 146.646,68.8880758 C146.646,68.2640727 146.732999,67.6610787 146.907,67.0790758 C147.081001,66.4970729 147.338998,65.9840781 147.681,65.5400758 C148.023002,65.0960736 148.451997,64.7390772 148.968,64.4690758 C149.484003,64.1990745 150.083997,64.0640758 150.768,64.0640758 C151.320003,64.0640758 151.844998,64.1810747 152.343,64.4150758 C152.841002,64.649077 153.233999,64.9940736 153.522,65.4500758 L153.558,65.4500758 L153.558,60.7700758 L156.114,60.7700758 L156.114,73.6220758 L153.684,73.6220758 L153.684,72.4340758 Z M166.77,73.6220758 L164.34,73.6220758 L164.34,72.3260758 L164.286,72.3260758 C163.961998,72.8660785 163.542003,73.2560746 163.026,73.4960758 C162.509997,73.736077 161.982003,73.8560758 161.442,73.8560758 C160.757997,73.8560758 160.197002,73.7660767 159.759,73.5860758 C159.320998,73.4060749 158.976001,73.1510775 158.724,72.8210758 C158.471999,72.4910742 158.295001,72.0890782 158.193,71.6150758 C158.090999,71.1410735 158.04,70.6160787 158.04,70.0400758 L158.04,64.3160758 L160.596,64.3160758 L160.596,69.5720758 C160.596,70.3400797 160.715999,70.9130739 160.956,71.2910758 C161.196001,71.6690777 161.621997,71.8580758 162.234,71.8580758 C162.930003,71.8580758 163.433998,71.6510779 163.746,71.2370758 C164.058002,70.8230738 164.214,70.1420806 164.214,69.1940758 L164.214,64.3160758 L166.77,64.3160758 L166.77,73.6220758 Z M170.694,70.5980758 C170.694,70.8740772 170.750999,71.1110748 170.865,71.3090758 C170.979001,71.5070768 171.125999,71.6690752 171.306,71.7950758 C171.486001,71.9210765 171.692999,72.0140755 171.927,72.0740758 C172.161001,72.1340761 172.403999,72.1640758 172.656,72.1640758 C172.836001,72.1640758 173.024999,72.143076 173.223,72.1010758 C173.421001,72.0590756 173.600999,71.9930763 173.763,71.9030758 C173.925001,71.8130754 174.059999,71.6930766 174.168,71.5430758 C174.276001,71.3930751 174.33,71.204077 174.33,70.9760758 C174.33,70.5920739 174.075003,70.3040768 173.565,70.1120758 C173.054997,69.9200749 172.344005,69.7280768 171.432,69.5360758 C171.059998,69.4520754 170.697002,69.3530764 170.343,69.2390758 C169.988998,69.1250753 169.674001,68.9750768 169.398,68.7890758 C169.121999,68.6030749 168.900001,68.3690772 168.732,68.0870758 C168.563999,67.8050744 168.48,67.4600779 168.48,67.0520758 C168.48,66.4520728 168.596999,65.9600778 168.831,65.5760758 C169.065001,65.1920739 169.373998,64.8890769 169.758,64.6670758 C170.142002,64.4450747 170.573998,64.2890763 171.054,64.1990758 C171.534002,64.1090754 172.025997,64.0640758 172.53,64.0640758 C173.034003,64.0640758 173.522998,64.1120754 173.997,64.2080758 C174.471002,64.3040763 174.893998,64.4660747 175.266,64.6940758 C175.638002,64.922077 175.946999,65.2250739 176.193,65.6030758 C176.439001,65.9810777 176.586,66.458073 176.634,67.0340758 L174.204,67.0340758 C174.168,66.5420734 173.982002,66.2090767 173.646,66.0350758 C173.309998,65.861075 172.914002,65.7740758 172.458,65.7740758 C172.313999,65.7740758 172.158001,65.7830757 171.99,65.8010758 C171.821999,65.8190759 171.669001,65.8580755 171.531,65.9180758 C171.392999,65.9780761 171.276,66.0650753 171.18,66.1790758 C171.084,66.2930764 171.036,66.4460749 171.036,66.6380758 C171.036,66.866077 171.119999,67.0520751 171.288,67.1960758 C171.456001,67.3400766 171.674999,67.4570754 171.945,67.5470758 C172.215001,67.6370763 172.523998,67.7180755 172.872,67.7900758 C173.220002,67.8620762 173.573998,67.9400754 173.934,68.0240758 C174.306002,68.1080763 174.668998,68.2100752 175.023,68.3300758 C175.377002,68.4500764 175.691999,68.6090748 175.968,68.8070758 C176.244001,69.0050768 176.465999,69.2510744 176.634,69.5450758 C176.802001,69.8390773 176.886,70.2020737 176.886,70.6340758 C176.886,71.2460789 176.763001,71.7590738 176.517,72.1730758 C176.270999,72.5870779 175.950002,72.9200746 175.554,73.1720758 C175.157998,73.4240771 174.705003,73.6010753 174.195,73.7030758 C173.684997,73.8050763 173.166003,73.8560758 172.638,73.8560758 C172.097997,73.8560758 171.570003,73.8020764 171.054,73.6940758 C170.537997,73.5860753 170.079002,73.4060771 169.677,73.1540758 C169.274998,72.9020746 168.945001,72.5690779 168.687,72.1550758 C168.428999,71.7410738 168.288,71.222079 168.264,70.5980758 L170.694,70.5980758 Z M181.62,64.3160758 L183.492,64.3160758 L183.492,66.0260758 L181.62,66.0260758 L181.62,70.6340758 C181.62,71.066078 181.691999,71.3540751 181.836,71.4980758 C181.980001,71.6420766 182.267998,71.7140758 182.7,71.7140758 C182.844001,71.7140758 182.981999,71.7080759 183.114,71.6960758 C183.246001,71.6840758 183.371999,71.666076 183.492,71.6420758 L183.492,73.6220758 C183.275999,73.658076 183.036001,73.6820758 182.772,73.6940758 C182.507999,73.7060759 182.250001,73.7120758 181.998,73.7120758 C181.601998,73.7120758 181.227002,73.6850761 180.873,73.6310758 C180.518998,73.5770756 180.207001,73.4720766 179.937,73.3160758 C179.666999,73.1600751 179.454001,72.9380773 179.298,72.6500758 C179.141999,72.3620744 179.064,71.9840782 179.064,71.5160758 L179.064,66.0260758 L177.516,66.0260758 L177.516,64.3160758 L179.064,64.3160758 L179.064,61.5260758 L181.62,61.5260758 L181.62,64.3160758 Z M184.716,64.3160758 L187.146,64.3160758 L187.146,66.0440758 L187.182,66.0440758 C187.302001,65.7560744 187.463999,65.4890771 187.668,65.2430758 C187.872001,64.9970746 188.105999,64.7870767 188.37,64.6130758 C188.634001,64.439075 188.915999,64.3040763 189.216,64.2080758 C189.516002,64.1120754 189.827998,64.0640758 190.152,64.0640758 C190.320001,64.0640758 190.505999,64.0940755 190.71,64.1540758 L190.71,66.5300758 C190.589999,66.5060757 190.446001,66.4850759 190.278,66.4670758 C190.109999,66.4490757 189.948001,66.4400758 189.792,66.4400758 C189.323998,66.4400758 188.928002,66.5180751 188.604,66.6740758 C188.279998,66.8300766 188.019001,67.0430745 187.821,67.3130758 C187.622999,67.5830772 187.482,67.898074 187.398,68.2580758 C187.314,68.6180776 187.272,69.0080737 187.272,69.4280758 L187.272,73.6220758 L184.716,73.6220758 L184.716,64.3160758 Z M194.346,62.8760758 L191.79,62.8760758 L191.79,60.7700758 L194.346,60.7700758 L194.346,62.8760758 Z M191.79,64.3160758 L194.346,64.3160758 L194.346,73.6220758 L191.79,73.6220758 L191.79,64.3160758 Z M196.254,67.1780758 C196.29,66.5780728 196.439999,66.0800778 196.704,65.6840758 C196.968001,65.2880739 197.303998,64.970077 197.712,64.7300758 C198.120002,64.4900746 198.578997,64.3190763 199.089,64.2170758 C199.599003,64.1150753 200.111997,64.0640758 200.628,64.0640758 C201.096002,64.0640758 201.569998,64.0970755 202.05,64.1630758 C202.530002,64.2290762 202.967998,64.3580749 203.364,64.5500758 C203.760002,64.7420768 204.083999,65.0090741 204.336,65.3510758 C204.588001,65.6930775 204.714,66.146073 204.714,66.7100758 L204.714,71.5520758 C204.714,71.9720779 204.738,72.3740739 204.786,72.7580758 C204.834,73.1420778 204.917999,73.4300749 205.038,73.6220758 L202.446,73.6220758 C202.398,73.4780751 202.359,73.3310766 202.329,73.1810758 C202.299,73.0310751 202.278,72.8780766 202.266,72.7220758 C201.857998,73.1420779 201.378003,73.436075 200.826,73.6040758 C200.273997,73.7720767 199.710003,73.8560758 199.134,73.8560758 C198.689998,73.8560758 198.276002,73.8020764 197.892,73.6940758 C197.507998,73.5860753 197.172001,73.418077 196.884,73.1900758 C196.595999,72.9620747 196.371001,72.6740776 196.209,72.3260758 C196.046999,71.9780741 195.966,71.5640782 195.966,71.0840758 C195.966,70.5560732 196.058999,70.1210775 196.245,69.7790758 C196.431001,69.4370741 196.670999,69.1640769 196.965,68.9600758 C197.259001,68.7560748 197.594998,68.6030763 197.973,68.5010758 C198.351002,68.3990753 198.731998,68.3180761 199.116,68.2580758 C199.500002,68.1980755 199.877998,68.150076 200.25,68.1140758 C200.622002,68.0780757 200.951999,68.0240762 201.24,67.9520758 C201.528001,67.8800755 201.755999,67.7750765 201.924,67.6370758 C202.092001,67.4990751 202.17,67.2980772 202.158,67.0340758 C202.158,66.7580745 202.113,66.5390766 202.023,66.3770758 C201.933,66.215075 201.813001,66.0890763 201.663,65.9990758 C201.512999,65.9090754 201.339001,65.849076 201.141,65.8190758 C200.942999,65.7890757 200.730001,65.7740758 200.502,65.7740758 C199.997997,65.7740758 199.602001,65.8820748 199.314,66.0980758 C199.025999,66.3140769 198.858,66.6740733 198.81,67.1780758 L196.254,67.1780758 Z M202.158,69.0680758 C202.049999,69.1640763 201.915001,69.2390756 201.753,69.2930758 C201.590999,69.3470761 201.417001,69.3920757 201.231,69.4280758 C201.044999,69.464076 200.850001,69.4940757 200.646,69.5180758 C200.441999,69.542076 200.238001,69.5720757 200.034,69.6080758 C199.841999,69.644076 199.653001,69.6920755 199.467,69.7520758 C199.280999,69.8120761 199.119001,69.8930753 198.981,69.9950758 C198.842999,70.0970763 198.732,70.2260751 198.648,70.3820758 C198.564,70.5380766 198.522,70.7360746 198.522,70.9760758 C198.522,71.204077 198.564,71.3960751 198.648,71.5520758 C198.732,71.7080766 198.845999,71.8310754 198.99,71.9210758 C199.134001,72.0110763 199.301999,72.0740757 199.494,72.1100758 C199.686001,72.146076 199.883999,72.1640758 200.088,72.1640758 C200.592003,72.1640758 200.981999,72.0800767 201.258,71.9120758 C201.534001,71.744075 201.737999,71.543077 201.87,71.3090758 C202.002001,71.0750747 202.083,70.838077 202.113,70.5980758 C202.143,70.3580746 202.158,70.1660766 202.158,70.0220758 L202.158,69.0680758 Z M206.766,60.7700758 L209.322,60.7700758 L209.322,73.6220758 L206.766,73.6220758 L206.766,60.7700758 Z M219.438,71.2460758 L221.958,71.2460758 C222.366002,71.2460758 222.761998,71.1800765 223.146,71.0480758 C223.530002,70.9160752 223.871999,70.6970774 224.172,70.3910758 C224.472002,70.0850743 224.711999,69.6860783 224.892,69.1940758 C225.072001,68.7020734 225.162,68.1020794 225.162,67.3940758 C225.162,66.7460726 225.099001,66.1610784 224.973,65.6390758 C224.846999,65.1170732 224.640001,64.6700777 224.352,64.2980758 C224.063999,63.926074 223.683002,63.6410768 223.209,63.4430758 C222.734998,63.2450748 222.150003,63.1460758 221.454,63.1460758 L219.438,63.1460758 L219.438,71.2460758 Z M216.612,60.7700758 L222.156,60.7700758 C222.984004,60.7700758 223.754996,60.9020745 224.469,61.1660758 C225.183004,61.4300772 225.800997,61.8260732 226.323,62.3540758 C226.845003,62.8820785 227.252999,63.5420719 227.547,64.3340758 C227.841001,65.1260798 227.988,66.0560705 227.988,67.1240758 C227.988,68.0600805 227.868001,68.9240719 227.628,69.7160758 C227.387999,70.5080798 227.025002,71.192073 226.539,71.7680758 C226.052998,72.3440787 225.447004,72.7970742 224.721,73.1270758 C223.994996,73.4570775 223.140005,73.6220758 222.156,73.6220758 L216.612,73.6220758 L216.612,60.7700758 Z M235.944,67.9700758 C235.823999,67.3220726 235.611002,66.8300775 235.305,66.4940758 C234.998998,66.1580742 234.534003,65.9900758 233.91,65.9900758 C233.501998,65.9900758 233.163001,66.0590751 232.893,66.1970758 C232.622999,66.3350765 232.407001,66.5060748 232.245,66.7100758 C232.082999,66.9140769 231.969,67.1300747 231.903,67.3580758 C231.837,67.586077 231.798,67.7900749 231.786,67.9700758 L235.944,67.9700758 Z M231.786,69.5900758 C231.822,70.41808 232.031998,71.018074 232.416,71.3900758 C232.800002,71.7620777 233.351996,71.9480758 234.072,71.9480758 C234.588003,71.9480758 235.031998,71.8190771 235.404,71.5610758 C235.776002,71.3030745 236.004,71.0300773 236.088,70.7420758 L238.338,70.7420758 C237.977998,71.8580814 237.426004,72.6560734 236.682,73.1360758 C235.937996,73.6160782 235.038005,73.8560758 233.982,73.8560758 C233.249996,73.8560758 232.590003,73.739077 232.002,73.5050758 C231.413997,73.2710747 230.916002,72.938078 230.508,72.5060758 C230.099998,72.0740737 229.785001,71.5580788 229.563,70.9580758 C229.340999,70.3580728 229.23,69.6980794 229.23,68.9780758 C229.23,68.2820724 229.343999,67.6340788 229.572,67.0340758 C229.800001,66.4340728 230.123998,65.915078 230.544,65.4770758 C230.964002,65.0390736 231.464997,64.6940771 232.047,64.4420758 C232.629003,64.1900746 233.273996,64.0640758 233.982,64.0640758 C234.774004,64.0640758 235.463997,64.2170743 236.052,64.5230758 C236.640003,64.8290774 237.122998,65.2400733 237.501,65.7560758 C237.879002,66.2720784 238.151999,66.8600725 238.32,67.5200758 C238.488001,68.1800791 238.548,68.8700722 238.5,69.5900758 L231.786,69.5900758 Z M241.992,70.5980758 C241.992,70.8740772 242.048999,71.1110748 242.163,71.3090758 C242.277001,71.5070768 242.423999,71.6690752 242.604,71.7950758 C242.784001,71.9210765 242.990999,72.0140755 243.225,72.0740758 C243.459001,72.1340761 243.701999,72.1640758 243.954,72.1640758 C244.134001,72.1640758 244.322999,72.143076 244.521,72.1010758 C244.719001,72.0590756 244.898999,71.9930763 245.061,71.9030758 C245.223001,71.8130754 245.357999,71.6930766 245.466,71.5430758 C245.574001,71.3930751 245.628,71.204077 245.628,70.9760758 C245.628,70.5920739 245.373003,70.3040768 244.863,70.1120758 C244.352997,69.9200749 243.642005,69.7280768 242.73,69.5360758 C242.357998,69.4520754 241.995002,69.3530764 241.641,69.2390758 C241.286998,69.1250753 240.972001,68.9750768 240.696,68.7890758 C240.419999,68.6030749 240.198001,68.3690772 240.03,68.0870758 C239.861999,67.8050744 239.778,67.4600779 239.778,67.0520758 C239.778,66.4520728 239.894999,65.9600778 240.129,65.5760758 C240.363001,65.1920739 240.671998,64.8890769 241.056,64.6670758 C241.440002,64.4450747 241.871998,64.2890763 242.352,64.1990758 C242.832002,64.1090754 243.323997,64.0640758 243.828,64.0640758 C244.332003,64.0640758 244.820998,64.1120754 245.295,64.2080758 C245.769002,64.3040763 246.191998,64.4660747 246.564,64.6940758 C246.936002,64.922077 247.244999,65.2250739 247.491,65.6030758 C247.737001,65.9810777 247.884,66.458073 247.932,67.0340758 L245.502,67.0340758 C245.466,66.5420734 245.280002,66.2090767 244.944,66.0350758 C244.607998,65.861075 244.212002,65.7740758 243.756,65.7740758 C243.611999,65.7740758 243.456001,65.7830757 243.288,65.8010758 C243.119999,65.8190759 242.967001,65.8580755 242.829,65.9180758 C242.690999,65.9780761 242.574,66.0650753 242.478,66.1790758 C242.382,66.2930764 242.334,66.4460749 242.334,66.6380758 C242.334,66.866077 242.417999,67.0520751 242.586,67.1960758 C242.754001,67.3400766 242.972999,67.4570754 243.243,67.5470758 C243.513001,67.6370763 243.821998,67.7180755 244.17,67.7900758 C244.518002,67.8620762 244.871998,67.9400754 245.232,68.0240758 C245.604002,68.1080763 245.966998,68.2100752 246.321,68.3300758 C246.675002,68.4500764 246.989999,68.6090748 247.266,68.8070758 C247.542001,69.0050768 247.763999,69.2510744 247.932,69.5450758 C248.100001,69.8390773 248.184,70.2020737 248.184,70.6340758 C248.184,71.2460789 248.061001,71.7590738 247.815,72.1730758 C247.568999,72.5870779 247.248002,72.9200746 246.852,73.1720758 C246.455998,73.4240771 246.003003,73.6010753 245.493,73.7030758 C244.982997,73.8050763 244.464003,73.8560758 243.936,73.8560758 C243.395997,73.8560758 242.868003,73.8020764 242.352,73.6940758 C241.835997,73.5860753 241.377002,73.4060771 240.975,73.1540758 C240.572998,72.9020746 240.243001,72.5690779 239.985,72.1550758 C239.726999,71.7410738 239.586,71.222079 239.562,70.5980758 L241.992,70.5980758 Z M252.306,62.8760758 L249.75,62.8760758 L249.75,60.7700758 L252.306,60.7700758 L252.306,62.8760758 Z M249.75,64.3160758 L252.306,64.3160758 L252.306,73.6220758 L249.75,73.6220758 L249.75,64.3160758 Z M258.66,71.4260758 C259.020002,71.4260758 259.337999,71.3540766 259.614,71.2100758 C259.890001,71.0660751 260.117999,70.874077 260.298,70.6340758 C260.478001,70.3940746 260.613,70.1210774 260.703,69.8150758 C260.793,69.5090743 260.838,69.1880775 260.838,68.8520758 C260.838,68.4680739 260.802,68.1050775 260.73,67.7630758 C260.658,67.4210741 260.538001,67.1180772 260.37,66.8540758 C260.201999,66.5900745 259.980001,66.3800766 259.704,66.2240758 C259.427999,66.0680751 259.080002,65.9900758 258.66,65.9900758 C258.299998,65.9900758 257.991001,66.0620751 257.733,66.2060758 C257.474999,66.3500766 257.259001,66.5450746 257.085,66.7910758 C256.910999,67.0370771 256.785,67.3190742 256.707,67.6370758 C256.629,67.9550774 256.59,68.2880741 256.59,68.6360758 C256.59,68.9720775 256.623,69.3050742 256.689,69.6350758 C256.755,69.9650775 256.868999,70.2620745 257.031,70.5260758 C257.193001,70.7900772 257.405999,71.006075 257.67,71.1740758 C257.934001,71.3420767 258.263998,71.4260758 258.66,71.4260758 Z M263.268,73.0280758 C263.268,73.4000777 263.217001,73.8260734 263.115,74.3060758 C263.012999,74.7860782 262.794002,75.2330738 262.458,75.6470758 C262.121998,76.0610779 261.636003,76.4120744 261,76.7000758 C260.363997,76.9880773 259.512005,77.1320758 258.444,77.1320758 C257.987998,77.1320758 257.523002,77.0750764 257.049,76.9610758 C256.574998,76.8470753 256.143002,76.670077 255.753,76.4300758 C255.362998,76.1900746 255.039001,75.8810777 254.781,75.5030758 C254.522999,75.1250739 254.376,74.6720785 254.34,74.1440758 L256.878,74.1440758 C256.998001,74.6240782 257.231998,74.9570749 257.58,75.1430758 C257.928002,75.3290768 258.329998,75.4220758 258.786,75.4220758 C259.506004,75.4220758 260.030998,75.206078 260.361,74.7740758 C260.691002,74.3420737 260.85,73.7960791 260.838,73.1360758 L260.838,71.9120758 L260.802,71.9120758 C260.525999,72.4040783 260.133003,72.7670747 259.623,73.0010758 C259.112997,73.235077 258.576003,73.3520758 258.012,73.3520758 C257.315997,73.3520758 256.716003,73.2290771 256.212,72.9830758 C255.707997,72.7370746 255.294002,72.401078 254.97,71.9750758 C254.645998,71.5490737 254.409001,71.0510787 254.259,70.4810758 C254.108999,69.911073 254.034,69.308079 254.034,68.6720758 C254.034,68.0720728 254.120999,67.4930786 254.295,66.9350758 C254.469001,66.377073 254.723998,65.885078 255.06,65.4590758 C255.396002,65.0330737 255.812998,64.6940771 256.311,64.4420758 C256.809002,64.1900746 257.381997,64.0640758 258.03,64.0640758 C258.642003,64.0640758 259.178998,64.1780747 259.641,64.4060758 C260.103002,64.634077 260.489998,65.0180731 260.802,65.5580758 L260.838,65.5580758 L260.838,64.3160758 L263.268,64.3160758 L263.268,73.0280758 Z M265.32,64.3160758 L267.75,64.3160758 L267.75,65.6120758 L267.804,65.6120758 C268.128002,65.0720731 268.547997,64.6790771 269.064,64.4330758 C269.580003,64.1870746 270.107997,64.0640758 270.648,64.0640758 C271.332003,64.0640758 271.892998,64.1570749 272.331,64.3430758 C272.769002,64.5290768 273.113999,64.7870742 273.366,65.1170758 C273.618001,65.4470775 273.794999,65.8490735 273.897,66.3230758 C273.999001,66.7970782 274.05,67.322073 274.05,67.8980758 L274.05,73.6220758 L271.494,73.6220758 L271.494,68.3660758 C271.494,67.598072 271.374001,67.0250777 271.134,66.6470758 C270.893999,66.2690739 270.468003,66.0800758 269.856,66.0800758 C269.159997,66.0800758 268.656002,66.2870738 268.344,66.7010758 C268.031998,67.1150779 267.876,67.7960711 267.876,68.7440758 L267.876,73.6220758 L265.32,73.6220758 L265.32,64.3160758 Z" id="Furniture-and-Industrial-Design" fill="#000000"></path>
            </g>
        </g>
    </g>
</svg>